<?xml version="1.0" encoding="UTF-8"?>
<!DOCTYPE svg PUBLIC "-//W3C//DTD SVG 1.1//EN" "http://www.w3.org/Graphics/SVG/1.1/DTD/svg11.dtd">
<!-- Creator: CorelDRAW -->
<svg xmlns="http://www.w3.org/2000/svg" xml:space="preserve" width="10in" height="10in" version="1.1" style="shape-rendering:geometricPrecision; text-rendering:geometricPrecision; image-rendering:optimizeQuality; fill-rule:evenodd; clip-rule:evenodd"
viewBox="0 0 10000 10000"
 xmlns:xlink="http://www.w3.org/1999/xlink"
 xmlns:xodm="http://www.corel.com/coreldraw/odm/2003">
 <defs>
  <style type="text/css">
   <![CDATA[
    .str1 {stroke:#201F1F;stroke-width:16.67;stroke-miterlimit:2.61313}
    .str0 {stroke:#201F1F;stroke-width:6.94;stroke-miterlimit:2.61313}
    .fil0 {fill:none}
    .fil3 {fill:#1A1919}
    .fil2 {fill:#201F1F}
    .fil10 {fill:#3F3436}
    .fil7 {fill:#C7773D}
    .fil5 {fill:#DD8444}
    .fil8 {fill:#E6E6E6}
    .fil1 {fill:#EAD2B8}
    .fil4 {fill:white}
    .fil9 {fill:white}
    .fil6 {fill:#201F1F;fill-rule:nonzero}
   ]]>
  </style>
 </defs>
 <g id="Layer_x0020_1">
  <metadata id="CorelCorpID_0Corel-Layer"/>
  <g id="_994131944">
   <rect class="fil0" width="10000" height="10000"/>
   <g>
    <path class="fil1" d="M-0 6405.75c598.44,-316.74 1492.62,-585.71 2536.43,-241.62 1918.35,632.37 1799.32,1178.92 3585.02,863.72 1785.7,-315.19 1831.61,1376.94 2509.3,1102.2 677.69,-274.74 909.32,674.43 1369.26,702.17l0 1167.79 -10000 0 0 -3594.25z"/>
    <g>
     <path class="fil2" d="M5958.78 9631.86l-1209.43 -219.5c0,0 561.24,-397.09 417.88,-985.83l791.55 0 791.55 0c-143.36,588.75 417.88,985.83 417.88,985.83l-1209.43 219.5z"/>
     <path class="fil3" d="M5187.65 8687.82c7.19,-81.89 2,-169.25 -20.41,-261.3l791.54 0 791.54 0c-22.41,92.06 -29.07,60.75 -21.87,142.64l-1540.8 118.66z"/>
     <path class="fil2" d="M4691.56 9412.35l2534.43 0c166.19,0 302.14,135.96 302.14,302.14l0 0 -3138.72 0 0 0c0,-166.19 135.96,-302.14 302.14,-302.14z"/>
     <path class="fil4" d="M2483.5 3771.84l0 4447.5c0,17.61 7.31,33.71 19.06,45.48 11.76,11.76 27.87,19.07 45.48,19.07l6821.45 0c17.61,0 33.72,-7.31 45.48,-19.07 11.75,-11.76 19.06,-27.87 19.06,-45.48l0 -4447.5c0,-17.61 -7.31,-33.72 -19.06,-45.48 -11.76,-11.75 -27.87,-19.06 -45.48,-19.06l-6821.45 0c-17.61,0 -33.72,7.31 -45.48,19.06 -11.75,11.76 -19.06,27.87 -19.06,45.48z"/>
     <rect class="fil5" x="4887.55" y="4468.61" width="2507.41" height="1229.24" rx="78.38" ry="97.85"/>
     <rect class="fil5" x="4887.55" y="5866.02" width="2507.41" height="1776.6" rx="54.23" ry="97.85"/>
     <rect class="fil5" x="7615.13" y="5385.95" width="1516.67" height="2256.67" rx="38.42" ry="145.59"/>
     <rect class="fil5" x="7615.13" y="4468.61" width="1516.67" height="758.34" rx="76.85" ry="97.85"/>
     <path class="fil6" d="M9033.96 8176.83l-1320.98 0c-30.9,0 -58.97,-12.64 -79.28,-32.95 -20.31,-20.31 -32.95,-48.39 -32.95,-79.28l0 -183.47c0,-30.85 12.64,-58.97 32.95,-79.28 20.31,-20.31 48.39,-32.95 79.28,-32.95l1320.98 0c30.85,0 58.97,12.64 79.28,32.95 20.31,20.31 32.95,48.43 32.95,79.28l0 183.47c0,30.89 -12.64,58.97 -32.95,79.28 -20.31,20.31 -48.43,32.95 -79.28,32.95zm-1320.98 -28.78l1320.98 0c22.92,0 43.8,-9.41 58.92,-24.54 15.12,-15.12 24.54,-36 24.54,-58.92l0 -183.47c0,-22.92 -9.41,-43.8 -24.54,-58.93 -15.12,-15.12 -36,-24.54 -58.92,-24.54l-1320.98 0c-22.92,0 -43.8,9.41 -58.93,24.54 -15.12,15.12 -24.54,36 -24.54,58.93l0 183.47c0,22.92 9.41,43.8 24.54,58.92 15.12,15.12 36,24.54 58.93,24.54z"/>
     <path class="fil6" d="M4985.39 8148.06l2330.07 0c22.92,0 43.8,-9.41 58.92,-24.54 15.12,-15.12 24.54,-36 24.54,-58.92l0 -183.47c0,-22.92 -9.41,-43.8 -24.54,-58.93 -15.12,-15.12 -36,-24.54 -58.92,-24.54l-2330.07 0c-22.92,0 -43.8,9.41 -58.92,24.54 -15.12,15.12 -24.54,36 -24.54,58.93l0 183.47c0,22.92 9.41,43.8 24.54,58.92 15.12,15.12 36,24.54 58.92,24.54zm2330.07 28.78l-2330.07 0c-30.89,0 -58.97,-12.64 -79.28,-32.95 -20.31,-20.31 -32.95,-48.39 -32.95,-79.28l0 -183.47c0,-30.85 12.64,-58.97 32.95,-79.28 20.31,-20.31 48.39,-32.95 79.28,-32.95l2330.07 0c30.85,0 58.97,12.64 79.28,32.95 20.31,20.31 32.95,48.43 32.95,79.28l0 183.47c0,30.89 -12.64,58.97 -32.95,79.28 -20.31,20.31 -48.43,32.95 -79.28,32.95z"/>
     <rect class="fil4" x="7776.58" y="5553.52" width="228.73" height="228.73" rx="48.93" ry="48.93"/>
     <rect class="fil4" x="8093.37" y="5553.52" width="309.45" height="39.14" rx="61.88" ry="7.83"/>
     <rect class="fil4" x="8093.37" y="5743.11" width="825.6" height="39.14" rx="165.1" ry="7.83"/>
     <rect class="fil4" x="8093.37" y="5648.31" width="675.16" height="39.14" rx="135.02" ry="7.83"/>
     <rect class="fil4" x="7776.58" y="5972.48" width="228.73" height="228.73" rx="48.93" ry="48.93"/>
     <rect class="fil4" x="8093.37" y="5972.48" width="309.45" height="39.14" rx="61.88" ry="7.83"/>
     <rect class="fil4" x="8093.37" y="6162.07" width="825.6" height="39.14" rx="165.1" ry="7.83"/>
     <rect class="fil4" x="8093.37" y="6067.27" width="675.16" height="39.14" rx="135.02" ry="7.83"/>
     <rect class="fil4" x="7776.58" y="6391.44" width="228.73" height="228.73" rx="48.93" ry="48.93"/>
     <rect class="fil4" x="8093.37" y="6391.44" width="309.45" height="39.14" rx="61.88" ry="7.83"/>
     <rect class="fil4" x="8093.37" y="6581.03" width="825.6" height="39.14" rx="165.1" ry="7.83"/>
     <rect class="fil4" x="8093.37" y="6486.23" width="675.16" height="39.14" rx="135.02" ry="7.83"/>
     <rect class="fil4" x="7776.58" y="6810.41" width="228.73" height="228.73" rx="48.93" ry="48.93"/>
     <rect class="fil4" x="8093.37" y="6810.41" width="309.45" height="39.14" rx="61.88" ry="7.83"/>
     <rect class="fil4" x="8093.37" y="6999.99" width="825.6" height="39.14" rx="165.1" ry="7.83"/>
     <rect class="fil4" x="8093.37" y="6905.2" width="675.16" height="39.14" rx="135.02" ry="7.83"/>
     <rect class="fil4" x="7776.58" y="7229.37" width="228.73" height="228.73" rx="48.93" ry="48.93"/>
     <rect class="fil4" x="8093.37" y="7229.37" width="309.45" height="39.14" rx="61.88" ry="7.83"/>
     <rect class="fil4" x="8093.37" y="7418.96" width="825.6" height="39.14" rx="165.1" ry="7.83"/>
     <rect class="fil4" x="8093.37" y="7324.16" width="675.16" height="39.14" rx="135.02" ry="7.83"/>
     <rect class="fil4" x="7779.02" y="4610.49" width="554.08" height="103.97" rx="244.62" ry="244.62"/>
     <rect class="fil4" x="7779.02" y="4811.11" width="371.55" height="55.04" rx="164.04" ry="129.5"/>
     <rect class="fil4" x="7779.02" y="4933.42" width="691.07" height="55.04" rx="305.11" ry="129.5"/>
     <rect class="fil4" x="7779.02" y="5055.71" width="371.55" height="55.04" rx="164.04" ry="129.5"/>
     <rect class="fil5" x="3253.11" y="3949.85" width="5411.27" height="305.15" rx="114.24" ry="75.66"/>
     <rect class="fil5" x="8810.23" y="4191.97" width="321.55" height="63.03" rx="1903.27" ry="355.19"/>
     <rect class="fil5" x="8810.23" y="4070.91" width="321.55" height="63.03" rx="1903.27" ry="355.19"/>
     <rect class="fil5" x="8810.23" y="3949.85" width="321.55" height="63.03" rx="1903.27" ry="355.19"/>
     <polygon class="fil5" points="3080.8,4255 2997.94,4255 2997.94,4145 2922.77,4145 2922.77,4255 2839.91,4255 2839.91,4107.67 2785.73,4140.36 2785.73,4072.93 2960.36,3949.85 3134.98,4072.93 3134.98,4140.36 3080.8,4107.67 "/>
     <polygon class="fil4" points="3419.87,4016.38 3441.14,4082.24 3510.35,4082.11 3454.28,4122.69 3475.79,4188.48 3419.87,4147.69 3363.95,4188.48 3385.46,4122.69 3329.39,4082.11 3398.61,4082.24 "/>
     <path class="fil4" d="M8447.89 4043.43c24.4,-24.41 63.97,-24.41 88.38,0 19.56,19.56 23.44,48.88 11.63,72.3l30.58 30.58c7.61,7.62 7.61,20.08 0,27.7l-0.01 0c-7.61,7.61 -20.07,7.62 -27.69,0l-30.58 -30.58c-23.44,11.81 -52.74,7.94 -72.31,-11.63 -24.41,-24.41 -24.41,-63.98 0,-88.38zm15.29 15.29c15.96,-15.96 41.83,-15.96 57.79,0 15.94,15.94 15.96,41.77 0.06,57.74l-0.06 0.06 -0.3 0.3c-15.98,15.66 -41.63,15.56 -57.49,-0.3 -15.96,-15.96 -15.96,-41.83 0,-57.79z"/>
     <path class="fil6" d="M2548.04 3422.03l6821.45 0c96.35,0 183.85,39.31 247.17,102.64 63.32,63.32 102.64,150.82 102.64,247.17l0 4447.5c0,96.35 -39.32,183.85 -102.64,247.17 -63.32,63.32 -150.82,102.64 -247.17,102.64l-6821.45 0c-96.35,0 -183.84,-39.32 -247.17,-102.64 -63.32,-63.32 -102.64,-150.82 -102.64,-247.17l0 -4447.5c0,-96.35 39.32,-183.85 102.64,-247.17 63.32,-63.32 150.82,-102.64 247.17,-102.64zm6821.45 285.26l-6821.45 0c-17.6,0 -33.72,7.31 -45.47,19.07 -11.76,11.76 -19.07,27.87 -19.07,45.48l0 4447.5c0,17.61 7.31,33.72 19.07,45.48 11.76,11.76 27.87,19.07 45.47,19.07l6821.45 0c17.61,0 33.72,-7.31 45.48,-19.07 11.76,-11.76 19.07,-27.87 19.07,-45.48l0 -4447.5c0,-17.6 -7.31,-33.72 -19.07,-45.48 -11.76,-11.76 -27.87,-19.07 -45.48,-19.07z"/>
     <rect class="fil5" x="2778.8" y="4468.6" width="1811.17" height="3693.83" rx="96.68" ry="96.68"/>
     <rect class="fil4" x="3374.4" y="5726.77" width="970.49" height="157.71" rx="1148.53" ry="91.51"/>
     <rect class="fil4" x="3374.4" y="6149.51" width="970.49" height="157.71" rx="1148.53" ry="91.51"/>
     <rect class="fil4" x="3374.4" y="6572.25" width="970.49" height="157.71" rx="1148.53" ry="91.51"/>
     <rect class="fil4" x="3374.4" y="6994.99" width="970.49" height="157.71" rx="1148.53" ry="91.51"/>
     <rect class="fil4" x="3374.4" y="7417.74" width="970.49" height="157.71" rx="1148.53" ry="91.51"/>
     <rect class="fil4" x="3374.4" y="7840.48" width="970.49" height="157.71" rx="1148.53" ry="91.51"/>
     <circle class="fil4" cx="3108.48" cy="5805.62" r="84.63"/>
     <circle class="fil4" cx="3108.48" cy="6228.39" r="84.63"/>
     <circle class="fil4" cx="3108.48" cy="6651.11" r="84.63"/>
     <circle class="fil4" cx="3108.48" cy="7073.84" r="84.63"/>
     <circle class="fil4" cx="3108.48" cy="7496.6" r="84.63"/>
     <circle class="fil4" cx="3108.48" cy="7919.33" r="84.63"/>
     <rect class="fil4" x="3023.83" y="4624.27" width="1321.05" height="917.88" rx="105.95" ry="69.05"/>
     <path class="fil5" d="M3376.57 5465.87l615.57 0 0 -43.1c0,-169.25 -138.49,-307.77 -307.77,-307.77l-0.03 0c-169.28,0 -307.77,138.52 -307.77,307.77l0 43.1z"/>
     <ellipse class="fil5" cx="3684.36" cy="4917.72" rx="147.72" ry="151.18"/>
     <path class="fil5" d="M3304.63 5135.96l8.57 47.03 -55.6 -47.03 -85.34 0c-28.97,0 -52.68,-23.7 -52.68,-52.68l0 -75.07c0,-28.98 23.7,-52.68 52.68,-52.68l132.37 0c28.97,0 52.68,23.7 52.68,52.68l0 75.07c0,28.98 -23.7,52.68 -52.68,52.68z"/>
     <rect class="fil4" x="3150.65" y="5000.98" width="87.8" height="12.53" rx="70.52" ry="179"/>
     <rect class="fil4" x="3150.65" y="5040.36" width="175.59" height="12.53" rx="141.04" ry="179"/>
     <rect class="fil4" x="3150.65" y="5079.73" width="175.59" height="12.53" rx="141.04" ry="179"/>
     <path class="fil5" d="M4064.09 4978.43l-8.57 47.03 55.6 -47.03 85.34 0c28.97,0 52.67,-23.7 52.67,-52.68l0 -75.07c0,-28.98 -23.7,-52.68 -52.67,-52.68l-132.37 0c-28.98,0 -52.68,23.7 -52.68,52.68l0 75.07c0,28.98 23.7,52.68 52.68,52.68z"/>
     <rect class="fil4" x="4130.27" y="4843.44" width="87.8" height="12.53" rx="70.52" ry="179"/>
     <rect class="fil4" x="4042.47" y="4882.82" width="175.59" height="12.53" rx="141.04" ry="179"/>
     <rect class="fil4" x="4042.47" y="4922.2" width="175.59" height="12.53" rx="141.04" ry="179"/>
     <circle class="fil7" cx="5482.5" cy="5083.23" r="375.32"/>
     <path class="fil8" d="M5250.95 4787.83c-87.54,68.71 -143.77,175.49 -143.77,295.4l375.31 0 -231.54 -295.4z"/>
     <rect class="fil4" x="6150.97" y="5417.37" width="856.67" height="41.18" rx="14367.39" ry="690.58"/>
     <rect class="fil4" x="6150.96" y="5217.91" width="1018.95" height="41.18" rx="17088.98" ry="690.58"/>
     <rect class="fil4" x="6150.96" y="5317.64" width="1018.95" height="41.18" rx="17089.06" ry="690.58"/>
     <rect class="fil4" x="6150.96" y="5114.4" width="661.54" height="41.18" rx="11094.77" ry="690.58"/>
     <rect class="fil4" x="6150.96" y="5012.78" width="273.08" height="41.18" rx="4579.84" ry="690.58"/>
     <rect class="fil4" x="6150.96" y="4911.16" width="1018.95" height="41.18" rx="17089.06" ry="690.58"/>
     <rect class="fil4" x="6150.96" y="4809.54" width="759.99" height="41.18" rx="12745.87" ry="690.58"/>
     <rect class="fil4" x="6150.96" y="4707.92" width="509.47" height="41.18" rx="8544.39" ry="690.58"/>
     <rect class="fil4" x="5145.58" y="6915.16" width="398.27" height="312.57"/>
     <rect class="fil4" x="5942.12" y="6602.6" width="398.27" height="625.13"/>
     <rect class="fil4" x="6738.65" y="6320.28" width="398.27" height="907.44"/>
     <rect class="fil2" x="5053.87" y="7227.74" width="2174.76" height="27.61"/>
     <g>
      <polygon class="fil9 str0" points="2551.98,5792.29 2626.58,5720.12 2652.21,5759.69 2596.36,5858.09 "/>
      <path class="fil9 str0" d="M2626.58 5720.12c0,0 17.83,-17.55 46.65,-28.81 22.81,-8.93 54.04,-15.14 83.24,-25.17 17.03,-5.85 29.16,-10.95 31.27,-9.54 3.65,2.35 1.05,19.15 -24.2,29.88 -25.24,10.68 -51.6,28.72 -51.6,28.72l-85.36 4.92z"/>
      <path class="fil9 str0" d="M2619.54 5777.72c0,0 76.9,26.6 145.85,25.42 69,-1.23 87.97,-13.77 87.34,-21.09 -0.61,-7.3 -13.03,-3.31 -36.25,-1.59 -19.18,1.44 -38.77,5.09 -38.49,1.7 0.26,-3.4 39.7,-8.62 46.49,-9.04 6.79,-0.43 53.83,-5.58 54.3,-17.31 0.43,-11.2 -33.15,-7.28 -51.46,-5.04l-44.72 -0.26c0.59,-3.43 41.3,-3.98 48.15,-4.31 6.87,-0.36 57.16,-1.44 58.61,-12.26 1.45,-10.81 -10.02,-13.76 -53.08,-11.56l-51.19 0.68c0.72,-9.65 89.13,0.53 91.85,-16.28 1.35,-8.45 -18.59,-9.13 -44.73,-8.81 -26.75,0.41 -71.56,3.72 -94.42,1.34 -74.08,-7.65 -111.13,20.8 -111.13,20.8 0,0 -33.78,31.22 -7.13,57.62z"/>
      <path class="fil9 str0" d="M1275.38 6137.61l0.72 -3.29c-6.41,-1.59 -10.85,-2.67 -11.01,-1.83 -0.41,2.26 4.36,3.55 10.29,5.12zm-958.6 -12.62c152.24,128.85 734.16,27.82 734.16,27.82l-0.83 -23.88 85.45 -17.07c34.65,26.29 152.83,60.61 159.87,43.8 4.84,-11.56 -9.46,-15.24 -20.05,-18.04l0.72 -3.29c16.53,4.07 46.2,11.47 49.52,-2.15 5.61,-22.99 -54.58,-22.21 -53.83,-26.79 0.18,-1.11 4.31,-0.43 10.44,0.86l-0.43 1.98 0.43 -1.98c19.13,4.02 57.75,14.04 56.6,-5.1 -0.74,-12.34 -35.09,-14.64 -51.67,-17.5l0.94 -4.32c17.68,1.79 52.96,8.87 49.62,-11.19 -2.9,-17.41 -68.14,-7 -113.46,-28.66 -39.09,-18.76 46.45,-41.93 22.26,-69.81 -5.1,-5.83 -19.63,6.06 -42.82,24.97 -18.97,15.45 -45.62,23.87 -76.16,51.21l-80.37 -1.27 -0.41 -11.95c0,0 -355.31,-34.47 -510.22,-82.98 33.54,-61.15 68.9,-134.34 107.99,-214.79 135.69,-279.37 252.02,-564.2 75.94,-551.7 -138.33,9.91 -565.57,858.12 -403.7,941.85zm971.33 -45.67c-5.43,-0.55 -9.19,-0.6 -9.67,0.79 -0.52,1.52 3.08,2.56 8.73,3.53l0.94 -4.32z"/>
      <path class="fil9 str0" d="M1349.74 9485.33l0 -532.32 171.52 -6.41 8.3 519.93 1.37 18.76 -1.37 -18.74c-25.76,2 -59.86,5.37 -79.27,10.41 -34.02,8.81 25.22,52.92 0,59.21 -25.2,6.3 -52.9,5.06 -68.03,-27.57 -8.3,-17.92 -21.89,-22.66 -32.52,-23.27z"/>
      <path class="fil9 str0" d="M887.43 8949.56c0,0 -47.53,313.17 -46.56,536.86 0.97,223.69 158.22,-19.16 158.22,-19.16 0,0 17.3,-466.48 10.21,-549.36 -7.09,-82.88 -121.87,31.67 -121.87,31.67z"/>
      <path class="fil2" d="M846.32 6385.16c0,0 854.18,-139.04 895.73,236.21 41.54,375.25 -87.12,1261.21 -103.92,1440.06 -35.42,377.77 -58.82,872.07 -71.46,1192.12l-257.56 0c-47.13,-215.78 -93.49,-494.34 -73.68,-690.79 15.57,-154.17 81.88,-501.33 81.88,-501.33l-97.79 -853.57c-9.39,110.19 -66.83,664.74 -86.43,853.57 -73.46,512.56 -66.61,798.14 -72.57,1192.12l-256.05 0c-44.77,-224.47 -91.88,-513.36 -80.53,-690.79 10.75,-168.93 53.66,-359.89 67.67,-501.33 14.01,-141.47 -125.73,-1234.88 -20.82,-1459.82 75.52,-216.45 75.54,-216.45 75.52,-216.45z"/>
      <path class="fil7" d="M753.77 6771.29c5.53,-15.51 9.91,-27.55 14.76,-40.87l518.52 -28.83 462.95 105.44c-0.06,36.32 -0.81,74.38 -2.19,113.9 -59.73,35.94 -269.98,141.68 -643.31,108.69 -163.42,-14.46 -284.11,-56.7 -372.83,-104.22 0.21,-31.71 0.9,-62.07 2.12,-90.9 5.37,-25.27 11.95,-46.7 19.98,-63.2z"/>
      <path class="fil9 str0" d="M1595.98 3955.17c0,0 47.76,19.93 44.22,199.87 -0.87,43.68 -14.78,127.57 -27.32,192.41 24.19,101.93 62.38,125.31 53.78,146.45 -4.04,9.96 -24.32,18.97 -44.9,25.79 -11.85,56.28 -42.19,138.2 -87.37,252.87 -0.03,0 -110.43,2.6 -327.73,-94.4l389.32 -722.99z"/>
      <path class="fil2" d="M1559.81 4037.42c0,0 -102.7,126.09 -89.23,396.3l-55.72 5.58c0,0 13.41,-74.61 -12.4,-106.02l67.96 -323.87 89.38 28.02z"/>
      <path class="fil9 str0" d="M1058.69 4672.11c22.42,86.78 -11.18,209.35 -27.31,255.37l358.13 23.54 -17.78 -267.51c-0.67,-43.19 -50.48,-94.5 -48.96,-140.52l-264.08 129.13z"/>
      <path class="fil2" d="M1600.81 3983.25c6.65,-21.71 95.69,-71.02 -61.74,-124.11 -149.02,-50.29 -491.94,-111.15 -565.8,-7.36 -144.73,51.64 -178.09,231.44 -146.61,386.24 41.47,215.33 176.89,338.07 229.34,431.7 34.35,35.01 263.67,15.12 304.39,-183.91 11.22,-132.2 184.48,-354.57 240.43,-502.56z"/>
      <path class="fil7" d="M1011.02 4828.51l-87.28 181.67c0,0 90.24,104.91 574.77,24.37l-56.17 -136.98c0,0 -206.69,-116.86 -431.33,-69.06z"/>
      <path class="fil5" d="M718.94 6870.9c-29.73,-239.47 42.39,-572.11 36.86,-784.55 -5.51,-215.25 -111.32,-393.63 -122.82,-791.13 -3.56,-121.17 74.77,-396.81 527.59,-390.46 376,5.24 627.12,198.39 645.59,352.46 29.52,245.91 -36.94,429.15 -53.2,693.89 -14.07,228.78 12.25,660.41 25.21,919.79 -0.02,0 -571.66,254.53 -1059.22,0z"/>
      <path class="fil9 str0" d="M1713.46 5110.11c57.1,-8.94 134.39,242.7 220.53,482.79 14.21,39.61 28.96,78.81 43.14,116.67 41.33,84.4 175.2,283.3 259.54,406.05 99.99,-161.02 340.59,-360.64 340.59,-360.64l48.08 76.27c0,0 -238.45,503.2 -380.51,467.82l-1.8 2.27c0,0 -191.38,-85.3 -408.14,-316.98 -1.98,-2.09 -3.96,-4.22 -5.93,-6.39l-4.2 -4.52 0.06 -0.09c-206.14,-231.28 -350.49,-825.78 -111.35,-863.23z"/>
      <polygon class="fil7" points="872.51,6720.96 903.79,6993.85 829.21,6969.47 "/>
      <polygon class="fil7" points="1590.33,6720.96 1619.87,6978.64 1541.41,7001.71 "/>
      <path class="fil6" d="M1842.49 9665.18l-492.75 0 0 -179.85c10.62,0.61 24.21,5.36 32.51,23.28 15.12,32.62 42.83,33.87 68.04,27.57 25.21,-6.3 -34.03,-50.4 0,-59.22 19.39,-5.03 53.5,-8.41 79.26,-10.41l1.36 18.76c0,0 193.22,76 256.04,92.53 62.79,16.5 55.54,87.35 55.54,87.35z"/>
      <path class="fil2" d="M1109.34 9594.8c0,0 -53.07,-111.05 -109.72,-127.56 0,0 -53.52,-12.49 -81.61,44.6 0,0 -64.22,23.64 -77.16,-29.43 0,0 -32.56,77.6 -23.19,185.53l348.32 0c0,0 14.72,-68.24 -56.64,-73.14z"/>
      <path class="fil2" d="M1087.24 3823.38l34.85 26.52c118.5,-80.77 314.85,-129.11 560.88,19.02 0,-0.04 -24.24,97.65 -173.14,125.19 -300.49,55.59 -419.37,66.27 -516.26,254.75 -7.67,138.53 111.24,453.49 77.65,459.23 -146.76,25.05 -306.56,-839.24 16.01,-884.7z"/>
      <path class="fil2" d="M1054.04 3837.16c-85.57,49.15 -106.33,66.93 -150.59,104.12 -96.2,-106.72 -55.65,-157.81 -55.65,-157.81l80.04 19.39c0,0 -82.45,-177.02 -19.41,-128.52 42.87,33 108.22,114.24 145.62,162.81z"/>
     </g>
    </g>
    <rect class="fil10" x="-0" y="9644.44" width="10000" height="355.56"/>
    <g>
     <rect class="fil5" x="986.43" y="2632.71" width="664.05" height="479.77"/>
     <rect class="fil9 str1" x="1818.74" y="2632.71" width="1661.5" height="189.47"/>
     <rect class="fil5" x="1818.74" y="2923.01" width="1661.5" height="189.47"/>
     <rect class="fil5" x="3753.1" y="2632.71" width="664.05" height="479.77"/>
     <rect class="fil5" x="4585.41" y="2632.71" width="1661.5" height="189.47"/>
     <rect class="fil9 str1" x="4585.41" y="2923.01" width="1661.5" height="189.47"/>
     <rect class="fil5" x="6519.76" y="2632.71" width="664.05" height="479.77"/>
     <rect class="fil9 str1" x="7352.07" y="2632.71" width="1661.5" height="189.47"/>
     <rect class="fil5" x="7352.07" y="2923.01" width="1661.5" height="189.47"/>
    </g>
   </g>
  </g>
 </g>
</svg>
